<svg id="white" xmlns="http://www.w3.org/2000/svg" viewBox="0 0 447.51 279.97"><defs><style>.cls-1{fill:none;stroke:#fff;stroke-miterlimit:10;}.cls-2,.cls-3{fill:#fff;}.cls-2{fill-rule:evenodd;}</style></defs><title>uww_logo_white</title><polygon class="cls-1" points="435.56 75.84 0.5 75.84 0.5 139.88 435.56 139.88 435.56 75.84 435.56 75.84"/><path class="cls-2" d="M123.06,170.59c0,27.48-23.62,61.4-52.19,61.4s-51.34-33.92-51.34-61.4V0H123.06V170.59Z" transform="translate(-0.44)"/><polygon class="cls-2" points="169.86 0 308.37 0 169.86 231.99 169.86 0 169.86 0"/><polygon class="cls-2" points="309 0 447.51 0 309 231.99 309 0 309 0"/><path class="cls-3" d="M16.44,254.32v13a5.47,5.47,0,0,0,1.16,3.86,4.6,4.6,0,0,0,3.54,1.24,4.57,4.57,0,0,0,3.52-1.24,5.56,5.56,0,0,0,1.15-3.86v-13h2.13v13a7.16,7.16,0,0,1-1.76,5.25,6.87,6.87,0,0,1-5.1,1.77A6.83,6.83,0,0,1,16,272.53a7.16,7.16,0,0,1-1.76-5.25v-13Z" transform="translate(-0.44)"/><path class="cls-3" d="M34.2,253.78v8h.06a5.46,5.46,0,0,1,4.43-2.11,5.05,5.05,0,0,1,4.14,1.9A8.42,8.42,0,0,1,44.36,267a8.26,8.26,0,0,1-1.58,5.33,5,5,0,0,1-4.09,2A5.54,5.54,0,0,1,34.15,272h0l0,2h-2V253.78ZM42.3,267q0-5.67-4-5.67a4.09,4.09,0,0,0-2.82,1.11,3.26,3.26,0,0,0-1.23,2.48v4.16a3.28,3.28,0,0,0,1.25,2.5,4.1,4.1,0,0,0,2.8,1.09,3.53,3.53,0,0,0,3-1.43A7.05,7.05,0,0,0,42.3,267Z" transform="translate(-0.44)"/><path class="cls-3" d="M48.68,274V260h2.16v14Zm0-17.36v-2.89h2.16v2.89Z" transform="translate(-0.44)"/><path class="cls-3" d="M67.39,260v20H65.33v-7.78h0a5.34,5.34,0,0,1-4.45,2.11,5,5,0,0,1-4.1-2A8.25,8.25,0,0,1,55.16,267a8.42,8.42,0,0,1,1.52-5.39,5.06,5.06,0,0,1,4.15-1.9,5.51,5.51,0,0,1,4.53,2.3h.06l0-2Zm-10.16,7a7.1,7.1,0,0,0,1.07,4.23,3.5,3.5,0,0,0,3,1.44,4.08,4.08,0,0,0,2.84-1.11,3.45,3.45,0,0,0,1.21-2.64v-3.84a3.49,3.49,0,0,0-1.2-2.63,4,4,0,0,0-2.85-1.12q-4.05,0-4.05,5.67Z" transform="translate(-0.44)"/><path class="cls-3" d="M71.3,260h2v8.45a5.54,5.54,0,0,0,.73,3.34,2.8,2.8,0,0,0,2.32.9,3.93,3.93,0,0,0,2.75-1.25,3.77,3.77,0,0,0,1.3-2.75V260h2.08v14h-2l0-2.11h-.06a5.67,5.67,0,0,1-4.64,2.38,4.25,4.25,0,0,1-3.45-1.3,6.7,6.7,0,0,1-1.09-4.29V260Z" transform="translate(-0.44)"/><path class="cls-3" d="M87.64,274V260H89.8v14Zm0-17.36v-2.89H89.8v2.89Z" transform="translate(-0.44)"/><path class="cls-3" d="M99.33,255.4v5.13h5.1v1.62h-5.1v7.37a4.28,4.28,0,0,0,.51,2.55,2.49,2.49,0,0,0,2,.61,6.46,6.46,0,0,0,2.24-.38V274a10.68,10.68,0,0,1-2.59.32,4.39,4.39,0,0,1-3.28-1,5.44,5.44,0,0,1-.9-3.61v-7.56h-3v-1.62h3V255.4Z" transform="translate(-0.44)"/><path class="cls-3" d="M109,261.64a6.79,6.79,0,0,1,9.46,0,9.29,9.29,0,0,1,0,10.74,6.79,6.79,0,0,1-9.46,0,9.33,9.33,0,0,1,0-10.74Zm.4,5.37q0,5.67,4.32,5.67T118,267q0-5.67-4.32-5.67T109.37,267Z" transform="translate(-0.44)"/><path class="cls-3" d="M123.11,260h2v8.45a5.54,5.54,0,0,0,.73,3.34,2.8,2.8,0,0,0,2.32.9,3.93,3.93,0,0,0,2.75-1.25,3.77,3.77,0,0,0,1.3-2.75V260h2.08v14h-1.94l0-2.11h-.06a5.67,5.67,0,0,1-4.64,2.38,4.23,4.23,0,0,1-3.44-1.3,6.64,6.64,0,0,1-1.1-4.29V260Z" transform="translate(-0.44)"/><path class="cls-3" d="M143.28,261.34c-2.16,0-3.24.69-3.24,2.08a2,2,0,0,0,.64,1.54,5.19,5.19,0,0,0,2.33,1,9.13,9.13,0,0,1,4,1.65,3.67,3.67,0,0,1,1.1,2.86,3.3,3.3,0,0,1-1.39,2.83,6.45,6.45,0,0,1-3.93,1,11.63,11.63,0,0,1-4.59-.89v-1.73a10.35,10.35,0,0,0,4.41,1c2.28,0,3.42-.75,3.42-2.24a2.15,2.15,0,0,0-.68-1.62,5.84,5.84,0,0,0-2.58-1.08,8.66,8.66,0,0,1-3.73-1.61,3.25,3.25,0,0,1-1.11-2.55,3.4,3.4,0,0,1,1.33-2.82,6.05,6.05,0,0,1,3.8-1,14.75,14.75,0,0,1,4.57.73v1.73a12.44,12.44,0,0,0-4.38-.84Z" transform="translate(-0.44)"/><polygon class="cls-3" points="171.55 254.32 174.98 271.71 175.03 271.71 178.63 254.32 181.43 254.32 185.05 271.71 185.1 271.71 188.53 254.32 190.67 254.32 186.35 274.03 183.65 274.03 180.03 256.64 179.97 256.64 176.36 274.03 173.66 274.03 169.34 254.32 171.55 254.32 171.55 254.32"/><path class="cls-3" d="M194.13,267.55c.11,3.46,1.74,5.18,4.89,5.18a10.48,10.48,0,0,0,4-.89v1.78a14.08,14.08,0,0,1-4.19.68,6.63,6.63,0,0,1-5.06-1.84,7.64,7.64,0,0,1-1.74-5.45q0-3.75,1.66-5.52a5.94,5.94,0,0,1,4.55-1.77q5.67,0,5.67,7.1c0,.16,0,.41-.05.73Zm0-1.59h7.74c-.05-3.12-1.26-4.67-3.64-4.67-2.56,0-3.92,1.55-4.1,4.67Z" transform="translate(-0.44)"/><path class="cls-3" d="M215.59,265.12v-.73a3,3,0,0,0-.75-2.31,4.15,4.15,0,0,0-2.68-.66,13.4,13.4,0,0,0-4.91,1v-1.87a14.72,14.72,0,0,1,4.91-.86c2.07,0,3.51.38,4.3,1.13s1.19,2.12,1.19,4.08V274h-2l0-2.4h0a5.43,5.43,0,0,1-5,2.67,4,4,0,0,1-3-1.16,4.2,4.2,0,0,1-1.15-3.08,4.29,4.29,0,0,1,1.79-3.59q1.77-1.35,5.69-1.35Zm0,1.49H214a7.57,7.57,0,0,0-4,.86,2.74,2.74,0,0,0-1.37,2.43,2.78,2.78,0,0,0,.69,2,2.39,2.39,0,0,0,1.82.74,4.33,4.33,0,0,0,3.23-1.3,4.62,4.62,0,0,0,1.28-3.43v-1.26Z" transform="translate(-0.44)"/><path class="cls-3" d="M221.56,260h2.08v3.13h.05a6.09,6.09,0,0,1,2.43-2.28,7.38,7.38,0,0,1,3.54-.85h.54v1.81h-.54a6.17,6.17,0,0,0-4.37,1.46,5.34,5.34,0,0,0-1.57,4.13V274h-2.16V260Z" transform="translate(-0.44)"/><path class="cls-3" d="M241.32,265.12v-.73a3,3,0,0,0-.75-2.31,4.14,4.14,0,0,0-2.67-.66,13.44,13.44,0,0,0-4.92,1v-1.87a14.74,14.74,0,0,1,4.92-.86c2.07,0,3.5.38,4.29,1.13s1.19,2.12,1.19,4.08V274h-1.95l0-2.4h-.06a5.43,5.43,0,0,1-5,2.67,4,4,0,0,1-3-1.16,4.2,4.2,0,0,1-1.14-3.08,4.28,4.28,0,0,1,1.78-3.59c1.19-.9,3.08-1.35,5.69-1.35Zm0,1.49H239.7a7.57,7.57,0,0,0-4,.86,2.74,2.74,0,0,0-1.37,2.43,2.78,2.78,0,0,0,.69,2,2.4,2.4,0,0,0,1.83.74,4.32,4.32,0,0,0,3.22-1.3,4.62,4.62,0,0,0,1.28-3.43v-1.26Z" transform="translate(-0.44)"/><path class="cls-3" d="M249.51,253.78v8h.05a5.46,5.46,0,0,1,4.43-2.11,5,5,0,0,1,4.14,1.9,8.42,8.42,0,0,1,1.53,5.39,8.26,8.26,0,0,1-1.58,5.33,5,5,0,0,1-4.09,2,5.54,5.54,0,0,1-4.54-2.27h0l0,2h-1.94V253.78Zm8.1,13.23q0-5.67-4.05-5.67a4.09,4.09,0,0,0-2.83,1.11,3.29,3.29,0,0,0-1.22,2.48v4.16a3.27,3.27,0,0,0,1.24,2.5,4.13,4.13,0,0,0,2.81,1.09,3.52,3.52,0,0,0,3-1.43,7,7,0,0,0,1.07-4.24Z" transform="translate(-0.44)"/><polygon class="cls-3" points="263.54 274.03 263.54 253.78 265.7 253.78 265.7 274.03 263.54 274.03 263.54 274.03"/><path class="cls-3" d="M272.4,267.55c.11,3.46,1.74,5.18,4.89,5.18a10.48,10.48,0,0,0,4-.89v1.78a14,14,0,0,1-4.18.68,6.65,6.65,0,0,1-5.07-1.84,7.64,7.64,0,0,1-1.74-5.45c0-2.5.56-4.34,1.66-5.52a6,6,0,0,1,4.55-1.77q5.67,0,5.67,7.1c0,.16,0,.41-.05.73Zm0-1.59h7.75c-.06-3.12-1.27-4.67-3.65-4.67-2.55,0-3.92,1.55-4.1,4.67Z" transform="translate(-0.44)"/><polygon class="cls-3" points="307.3 254.32 310.73 271.71 310.78 271.71 314.38 254.32 317.18 254.32 320.8 271.71 320.86 271.71 324.28 254.32 326.42 254.32 322.1 274.03 319.4 274.03 315.78 256.64 315.73 256.64 312.11 274.03 309.41 274.03 305.09 254.32 307.3 254.32 307.3 254.32"/><path class="cls-3" d="M329.5,261.64a6.79,6.79,0,0,1,9.46,0,9.24,9.24,0,0,1,0,10.74,6.79,6.79,0,0,1-9.46,0,9.33,9.33,0,0,1,0-10.74Zm.41,5.37q0,5.67,4.32,5.67t4.32-5.67q0-5.67-4.32-5.67T329.91,267Z" transform="translate(-0.44)"/><path class="cls-3" d="M343.78,260h2.08v3.13h.06a6,6,0,0,1,2.43-2.28,7.34,7.34,0,0,1,3.53-.85h.54v1.81h-.54a6.17,6.17,0,0,0-4.37,1.46,5.38,5.38,0,0,0-1.57,4.13V274h-2.16V260Z" transform="translate(-0.44)"/><polygon class="cls-3" points="357.71 253.78 357.71 266.25 357.76 266.25 364.54 259.99 367.11 259.99 359.74 266.74 367.16 274.03 364.62 274.03 357.76 267.23 357.71 267.23 357.71 274.03 355.63 274.03 355.63 253.78 357.71 253.78 357.71 253.78"/><path class="cls-3" d="M374.94,261.34c-2.16,0-3.24.69-3.24,2.08a2,2,0,0,0,.64,1.54,5.19,5.19,0,0,0,2.33,1,9,9,0,0,1,4,1.65,3.64,3.64,0,0,1,1.11,2.86,3.3,3.3,0,0,1-1.39,2.83,6.49,6.49,0,0,1-3.93,1,11.63,11.63,0,0,1-4.59-.89v-1.73a10.34,10.34,0,0,0,4.4,1c2.29,0,3.43-.75,3.43-2.24a2.12,2.12,0,0,0-.69-1.62,5.79,5.79,0,0,0-2.57-1.08,8.66,8.66,0,0,1-3.73-1.61,3.25,3.25,0,0,1-1.11-2.55,3.37,3.37,0,0,1,1.33-2.82,6.05,6.05,0,0,1,3.8-1,14.8,14.8,0,0,1,4.57.73v1.73a12.48,12.48,0,0,0-4.38-.84Z" transform="translate(-0.44)"/><path class="cls-3" d="M385.66,253.78v8.34h0a5.67,5.67,0,0,1,4.54-2.4,4.33,4.33,0,0,1,3.56,1.36c.74.91,1.11,2.44,1.11,4.58V274h-2v-8a6.43,6.43,0,0,0-.72-3.66,2.94,2.94,0,0,0-2.47-.93,4.65,4.65,0,0,0-4,4.08V274h-2.08V253.78Z" transform="translate(-0.44)"/><path class="cls-3" d="M399.59,261.64a6.8,6.8,0,0,1,9.47,0,9.29,9.29,0,0,1,0,10.74,6.8,6.8,0,0,1-9.47,0,9.33,9.33,0,0,1,0-10.74ZM400,267q0,5.67,4.32,5.67t4.32-5.67q0-5.67-4.32-5.67T400,267Z" transform="translate(-0.44)"/><path class="cls-3" d="M413.88,260h1.94l0,2h0a5.52,5.52,0,0,1,4.54-2.3,5.05,5.05,0,0,1,4.14,1.9,8.42,8.42,0,0,1,1.53,5.39,8.26,8.26,0,0,1-1.58,5.33,5,5,0,0,1-4.09,2,5.35,5.35,0,0,1-4.43-2.11H416V280h-2.07V260Zm10.17,7q0-5.67-4.05-5.67a4,4,0,0,0-2.84,1.12,3.46,3.46,0,0,0-1.21,2.63v3.84a3.46,3.46,0,0,0,1.22,2.64,4.06,4.06,0,0,0,2.83,1.11,3.51,3.51,0,0,0,3-1.44,7.1,7.1,0,0,0,1.06-4.23Z" transform="translate(-0.44)"/></svg>